HIERARCHY
ROOT ui
{
	 OFFSET 0 0 0
	 CHANNELS 3 XPosition YPosition Z Position
	 EndSite
	 {
	 OFFSET 0 -1 0
	 }
}
ROOT li
{
	 OFFSET 0 0 0
	 CHANNELS 3 XPosition YPosition Z Position
	 EndSite
	 {
	 OFFSET 0 -1 0
	 }
}
ROOT ul
{
	 OFFSET 0 0 0
	 CHANNELS 3 XPosition YPosition Z Position
	 EndSite
	 {
	 OFFSET 0 -1 0
	 }
}
ROOT ll
{
	 OFFSET 0 0 0
	 CHANNELS 3 XPosition YPosition Z Position
	 EndSite
	 {
	 OFFSET 0 -1 0
	 }
}
ROOT tt
{
	 OFFSET 0 0 0
	 CHANNELS 3 XPosition YPosition Z Position
	 EndSite
	 {
	 OFFSET 0 -1 0
	 }
}
ROOT tb
{
	 OFFSET 0 0 0
	 CHANNELS 3 XPosition YPosition Z Position
	 EndSite
	 {
	 OFFSET 0 -1 0
	 }
}
ROOT td
{
	 OFFSET 0 0 0
	 CHANNELS 3 XPosition YPosition Z Position
	 EndSite
	 {
	 OFFSET 0 -1 0
	 }
}
ROOT v
{
	 OFFSET 0 0 0
	 CHANNELS 3 XPosition YPosition Z Position
	 EndSite
	 {
	 OFFSET 0 -1 0
	 }
}
ROOT bn
{
	 OFFSET 0 0 0
	 CHANNELS 3 XPosition YPosition Z Position
	 EndSite
	 {
	 OFFSET 0 -1 0
	 }
}
MOTION
Frames: 29
Frame Time: 0.002
-2.0208500325679779E-4	9.100139737129212E-4	0		0.4914775390625	-2.5700595703125	0		-0.5732316284179687	-5.575060248374939E-4	0		0.40150656127929685	-2.060331787109375	0		1.4073184814453126	-0.9502528686523437	0		2.987989990234375	-0.6187452392578126	0		4.51501953125	-0.2418118896484375	0		5.5511826171875	0.1540046844482422	0		-0.3279815673828125	5.845685546875	0		
-0.014761989593505859	0.010281133651733398	0		0.4828211975097656	-2.567743408203125	0		-0.5618795166015625	-0.002383021116256714	0		0.413928955078125	-2.04918115234375	0		1.4116953125	-0.9470545043945312	0		3.044322998046875	-0.6219838256835938	0		4.51942333984375	-0.23666282653808593	0		5.5566083984375	0.16112933349609376	0		-0.297363037109375	5.86570458984375	0		
0.009551833152770996	0.006351503849029541	0		0.46813232421875	-2.566371826171875	0		-0.5724616088867187	0.0069741950035095215	0		0.42028790283203127	-2.0429754638671875	0		1.4040416259765625	-0.9447542724609375	0		2.99774755859375	-0.61040185546875	0		4.52075732421875	-0.23748666381835937	0		5.55794970703125	0.16028793334960936	0		-0.29592547607421876	5.86496240234375	0		
-0.012123567581176758	0.008801665306091309	0		0.497362548828125	-2.570335693359375	0		-0.5711615600585938	0.006251545906066894	0		0.42457583618164063	-2.0407393798828126	0		1.4002694091796875	-0.9524714965820312	0		2.9978935546875	-0.6291784057617188	0		4.51900537109375	-0.2442742919921875	0		5.559251953125	0.15945809936523436	0		-0.3096022033691406	5.85435498046875	0		
-0.021956352233886717	-0.0018232890367507935	0		0.46856466674804687	-2.570818359375	0		-0.57394677734375	0.0015804170370101928	0		0.44176190185546876	-2.044587646484375	0		1.410474853515625	-0.9562811279296874	0		3.003168701171875	-0.6249765625	0		4.511263671875	-0.24299549865722656	0		5.55643798828125	0.15067897033691408	0		-0.30825244140625	5.85364697265625	0		
-0.012720298767089844	0.004422523975372314	0		0.4816517639160156	-2.577612548828125	0		-0.5687344970703125	0.004867948055267334	0		0.450978271484375	-2.0363499755859373	0		1.4136624755859375	-0.95401220703125	0		3.01027392578125	-0.6337671508789062	0		4.521423828125	-0.24583657836914063	0		5.5616845703125	0.1578592987060547	0		-0.3410167236328125	5.84723388671875	0		
-0.008591135025024415	0.0067336511611938476	0		0.47681765747070315	-2.565238037109375	0		-0.5676292724609375	0.004212616920471191	0		0.46012078857421873	-2.0280870361328125	0		1.417783447265625	-0.9507252807617188	0		3.00847265625	-0.6214594116210937	0		4.52557275390625	-0.24060227966308595	0		5.56279248046875	0.15710020446777342	0		-0.32472494506835936	5.8574541015625	0		
-0.007566802024841309	0.0060958809852600096	0		0.52871923828125	-2.576292724609375	0		-0.56660498046875	0.003583722114562988	0		0.46413681030273435	-2.02575634765625	0		1.415760498046875	-0.9553614501953125	0		3.015422607421875	-0.6301929931640625	0		4.517609375	-0.23923983764648438	0		5.5638193359375	0.15637400817871094	0		-0.2706094665527344	5.85639599609375	0		
-0.013674492835998536	-4.5801299810409546E-4	0		0.4746727600097656	-2.570468505859375	0		-0.5696967163085938	-9.863880276679993E-4	0		0.47799951171875	-2.0324779052734376	0		1.4166871337890625	-0.9559921875	0		3.02740966796875	-0.6239351806640625	0		4.52448193359375	-0.24796278381347656	0		5.58069677734375	0.14755572509765624	0		-0.303624755859375	5.85106298828125	0		
-0.016850805282592772	-0.005009169101715088	0		0.5284309692382813	-2.579484619140625	0		-0.5688409423828125	-0.001563094973564148	0		0.48388665771484374	-2.02610791015625	0		1.4155072021484374	-0.9595769653320313	0		2.99123486328125	-0.6272577514648437	0		4.5212861328125	-0.2545693359375	0		5.565619140625	0.15503245544433594	0		-0.2686582946777344	5.855208984375	0		
-0.01204475975036621	-0.00159893798828125	0		0.4960998229980469	-2.589781005859375	0		-0.5680670166015624	-0.0021150081157684324	0		0.5006077575683594	-2.030799072265625	0		1.4182957763671875	-0.9571647338867187	0		3.004953857421875	-0.6339495849609375	0		4.52610595703125	-0.24920413208007813	0		5.571322265625	0.14537973022460937	0		-0.35099298095703124	5.83432421875	0		
0.026667835235595704	-4.372549951076508E-4	0		0.5567925415039062	-2.588800537109375	0		-0.5514182739257812	-0.00877137565612793	0		0.47639620971679686	-2.018133056640625	0		1.4309940185546874	-0.9568037719726562	0		3.028637939453125	-0.6356890258789063	0		4.5317373046875	-0.257809326171875	0		5.57202099609375	0.14480691528320314	0		-0.28604434204101564	5.85927783203125	0		
-0.013597908973693848	0.012387762069702149	0		0.4815724487304687	-2.568695556640625	0		-0.562709228515625	8.222110271453858E-4	0		0.5099894409179687	-2.0219072265625	0		1.41960986328125	-0.958218994140625	0		3.03034375	-0.626217041015625	0		4.5274287109375	-0.2502958068847656	0		5.56772216796875	0.1533155517578125	0		-0.2853891906738281	5.8587734375	0		
0.015835679054260254	-0.00432584810256958	0		0.5429844970703125	-2.58766845703125	0		-0.5661776733398437	-0.0036242969036102296	0		0.5105498352050781	-2.0223880615234373	0		1.4201719970703126	-0.9587012939453124	0		2.979786865234375	-0.64128955078125	0		4.51900830078125	-0.24871064758300782	0		5.5642216796875	0.14485891723632813	0		-0.29989593505859374	5.84841552734375	0		
-0.005627192974090576	-6.036919951438904E-4	0		0.4865184631347656	-2.584662841796875	0		-0.5656735229492188	-0.004080535888671875	0		0.5110568542480469	-2.0228426513671875	0		1.420677490234375	-0.9591546630859376	0		3.01428271484375	-0.6430152587890625	0		4.52139990234375	-0.26317523193359377	0		5.5647255859375	0.14441152954101563	0		-0.2994002685546875	5.8479599609375	0		
0.003836829900741577	8.910710215568543E-4	0		0.47906768798828125	-2.57402880859375	0		-0.5552337646484375	-0.005596352100372314	0		0.45263742065429685	-2.007797119140625	0		1.42708154296875	-0.9656287841796874	0		3.02370947265625	-0.6465062866210938	0		4.5248974609375	-0.2576111145019531	0		5.5701005859375	0.13496484375	0		-0.31793832397460936	5.85267919921875	0		
-0.001759400963783264	0.001528388023376465	0		0.49345108032226564	-2.578548828125	0		-0.5607976684570313	-9.636330008506775E-4	0		0.5230305786132813	-2.0107689208984376	0		1.4245654296875	-0.9560045776367188	0		3.00819140625	-0.6367644653320312	0		4.523408203125	-0.24397035217285157	0		5.5696318359375	0.1516058044433594	0		-0.31758956909179686	5.852265625	0		
-0.0014134039878845215	0.001137151002883911	0		0.4818756103515625	-2.572837890625	0		-0.56045166015625	-0.001361338973045349	0		0.4564422912597656	-2.00561474609375	0		1.424922607421875	-0.9563792724609375	0		3.01150439453125	-0.6421448974609375	0		4.52564404296875	-0.25832485961914065	0		5.56997607421875	0.15127903747558594	0		-0.28327212524414064	5.8565966796875	0		
-0.018088714599609375	0.0039003860950469972	0		0.5081743774414063	-2.57841259765625	0		-0.4931858825683594	-0.006281612873077392	0		0.52373095703125	-2.011519287109375	0		1.422205322265625	-0.9607063598632812	0		3.054861083984375	-0.6368174438476563	0		4.52289990234375	-0.26460397338867186	0		5.5662099609375	0.14302418518066407	0		-0.249015380859375	5.8619453125	0		
-0.01193408966064453	-0.009505203247070312	0		0.47848455810546875	-2.578519775390625	0		-0.5639243774414062	-0.0060795040130615235	0		0.48802230834960936	-2.0125780029296876	0		1.422483154296875	-0.9610362548828125	0		2.993134521484375	-0.6366185302734375	0		4.517228515625	-0.25682577514648436	0		5.56646630859375	0.14277479553222655	0		-0.2639578857421875	5.85070361328125	0		
-0.011707889556884765	-0.009849239349365234	0		0.4907219848632812	-2.584947998046875	0		-0.5596663818359375	-0.002468444108963013	0		0.550197021484375	-2.0254056396484375	0		1.4317071533203125	-0.9644188842773438	0		2.993375244140625	-0.6368928833007812	0		4.523396484375	-0.26511248779296875	0		5.5756806640625	0.14148818969726562	0		-0.28282699584960935	5.85550537109375	0		
0.0036070261001586914	0.0036997809410095213	0		0.499065185546875	-2.576329833984375	0		-0.5404075927734375	0.004034475803375244	0		0.4895516052246094	-2.0132362060546876	0		1.43799169921875	-0.9577598266601562	0		3.03257861328125	-0.639455322265625	0		4.5307021484375	-0.2533800811767578	0		5.57588037109375	0.1413045196533203	0		-0.31681658935546875	5.8504384765625	0		
0.025767894744873048	-7.918040156364441E-4	0		0.5502518310546874	-2.587037353515625	0		-0.488271484375	-0.0037108590602874755	0		0.5537295532226563	-2.023047119140625	0		1.426213134765625	-0.9579403076171875	0		3.016878173828125	-0.6285584716796875	0		4.524966796875	-0.24551934814453125	0		5.57114111328125	0.1501873779296875	0		-0.2827530517578125	5.85484228515625	0		
-3.678600117564201E-5	-8.88010025024414E-4	0		0.48160629272460936	-2.57677783203125	0		-0.5590746459960938	-0.003466815948486328	0		0.5440650024414062	-2.013254150390625	0		1.426436767578125	-0.9581995239257812	0		2.997060791015625	-0.6326109619140625	0		4.5240107421875	-0.26567572021484376	0		5.56726806640625	0.14208619689941407	0		-0.31190191650390625	5.8337607421875	0		
0.006159364223480224	-0.0022222518920898436	0		0.5368419799804688	-2.58348291015625	0		-0.49190396118164065	-0.008298949241638183	0		0.5572843627929688	-2.0196263427734373	0		1.4266707763671875	-0.9584420166015625	0		3.0142763671875	-0.6339382934570312	0		4.5182861328125	-0.25777444458007814	0		5.57239697265625	0.13293392944335938	0		-0.297793701171875	5.844353515625	0		
-0.0026354520320892335	-0.004421422004699707	0		0.4740743713378906	-2.592241455078125	0		-0.5586497192382812	-0.004058745861053467	0		0.49565609741210936	-2.008392822265625	0		1.4328660888671876	-0.9657144165039062	0		3.026398681640625	-0.6492080078125	0		4.5274990234375	-0.2599741821289063	0		5.57261328125	0.13283763122558595	0		-0.3318013916015625	5.83834130859375	0		
0.01770028305053711	0.007170535087585449	0		0.5254720458984375	-2.582877197265625	0		-0.5584071655273437	-0.00432697582244873	0		0.5020139770507812	-2.00167626953125	0		1.4391923828125	-0.9589692993164063	0		3.0147783203125	-0.634274169921875	0		4.5277490234375	-0.26008804321289064	0		5.5769140625	0.14072395324707032	0		-0.316650634765625	5.84896240234375	0		
-0.009030360221862793	0.007150590896606445	0		0.47493374633789065	-2.567696044921875	0		-0.5581383056640625	-0.004573812007904052	0		0.5413627319335937	-1.9991961669921876	0		1.436465576171875	-0.962135009765625	0		3.008050048828125	-0.6363632202148437	0		4.523087890625	-0.25214927673339843	0		5.5731162109375	0.1326857147216797	0		-0.33163604736328123	5.83783935546875	0		
0.024173437118530275	-0.005314432144165039	0		0.5111991577148437	-2.58117138671875	0		-0.557840087890625	-0.0047979259490966795	0		0.5077390747070313	-1.996126953125	0		1.4278131103515626	-0.9592355346679687	0		3.018419189453125	-0.6295689086914062	0		4.523392578125	-0.25223631286621095	0		5.56848095703125	0.14166554260253905	0		-0.29744989013671874	5.843357421875	0		
